<svg xmlns="http://www.w3.org/2000/svg"><style>:root svg:not(:target){display:none}</style><svg fill="none" id="background-food" viewBox="0 0 40 40"><path d="M37.743 25.85H2.257C.997 25.85 0 26.864 0 28.029v1.773c0 1.165.997 2.128 2.257 2.128h.525v.506c0 2.786 2.362 5.015 5.197 5.015h24.042c2.887 0 5.197-2.28 5.197-5.015v-.506h.525c1.207 0 2.257-.963 2.257-2.178v-1.773c0-1.115-.997-2.128-2.257-2.128Zm-2.047 6.585c0 1.925-1.628 3.495-3.622 3.495H7.927c-1.995 0-3.623-1.57-3.623-3.495v-.506h31.392v.506Zm2.73-2.684c0 .354-.316.658-.683.658H2.257c-.367 0-.682-.304-.682-.658v-1.773c0-.304.315-.608.682-.608h35.538c.368 0 .683.304.683.659v1.722h-.053ZM8.504 21.747l2.835 2.026 2.887-2.026 2.887 2.026L20 21.747l2.835 2.026 2.887-2.026 2.887 2.026 2.887-2.026 2.887 2.026 3.307-2.38-.892-1.216-2.415 1.672-2.887-2.026-2.887 2.026-2.887-2.026-2.887 2.026L20 19.823l-2.887 2.026-2.887-2.026-2.887 2.026-2.835-2.026-2.887 2.026-2.415-1.672-.945 1.216 3.36 2.38 2.887-2.026ZM37.218 18.303c0-.304.052-1.317 0-1.52C36.85 8.883 29.29 2.55 20 2.55S3.097 8.882 2.73 16.784v1.52h34.488ZM20 4.07c8.399 0 15.328 5.673 15.643 12.714H4.304C4.672 9.743 11.601 4.07 20 4.07Z" fill="#81B3D2"></path><path d="M20 11.161c.58 0 1.05-.453 1.05-1.013 0-.56-.47-1.013-1.05-1.013-.58 0-1.05.454-1.05 1.013 0 .56.47 1.013 1.05 1.013ZM15.8 8.679c.58 0 1.05-.454 1.05-1.013 0-.56-.47-1.013-1.05-1.013-.58 0-1.05.453-1.05 1.013 0 .56.47 1.013 1.05 1.013ZM24.2 8.679c.58 0 1.05-.454 1.05-1.013 0-.56-.47-1.013-1.05-1.013-.58 0-1.05.453-1.05 1.013 0 .56.47 1.013 1.05 1.013Z" fill="#81B3D2"></path></svg><svg fill="none" id="background-gift" viewBox="0 0 40 40"><path d="M34.578 12.206H22.184c6.908-3.444 7.467-5.622 7.213-6.838-.559-1.975-2.845-3.495-4.978-2.685-2.794 1.064-3.556 5.217-4.317 8.206-.965-3.04-1.88-6.889-4.064-8.864-.61-.557-1.524-1.114-2.895-1.013-2.032.203-4.927 2.684-3.708 5.47 1.117 2.685 4.825 4.407 7.314 5.775H5.422c-.812 0-1.422.658-1.422 1.418v5.672c0 .811.66 1.419 1.422 1.419h.153V39h28.952V20.766h.05c.814 0 1.423-.659 1.423-1.418v-5.673c0-.81-.66-1.47-1.422-1.47ZM25.232 3.95c1.066-.152 2.489.658 2.641 1.62.203 1.368-1.676 2.634-2.54 3.192-1.27.86-2.489 1.316-3.657 2.026.407-1.874 1.27-6.534 3.556-6.838Zm-11.48 4.964c-1.117-.76-3.25-2.23-3.2-3.9.051-1.824 2.896-3.293 4.42-1.925 1.93 1.671 2.844 5.571 3.555 8.306-1.625-.81-3.15-1.418-4.775-2.481ZM16.75 37.48H7.048V20.767h9.701V37.48Zm0-18.234H5.524v-5.52h11.225v5.52Zm5.08 18.235h-3.607V13.724h3.607V37.48Zm11.174 0h-9.65V20.765h9.701V37.48h-.05Zm1.473-18.235H23.352v-5.52h11.124v5.52Z" fill="#81B3D2"></path></svg><svg id="background-house" viewBox="0 0 40 40"><path d="M15.902 34.804h8.353V22.646h-8.353v12.158Zm6.839-1.475h-5.325V24.12h5.273v9.208h.052Z"></path><path d="m38.404 21.628 1.096-1.069-5.169-5.036V1.788h-7.205v6.715l-7.152-6.918L.5 20.61l1.096 1.069L5.67 17.71V36.94H3.633v1.475h33.361V36.94h-2.663V17.66l4.073 3.968ZM28.64 3.314h4.124v10.734l-4.124-4.019V3.314Zm4.176 33.575H7.235V16.185L19.974 3.72l12.791 12.464v20.704h.052Z"></path><path d="M16.058 15.422c0 2.187 1.828 3.968 4.02 3.968 2.245 0 4.073-1.781 4.073-3.968 0-2.188-1.828-3.918-4.073-3.918s-4.02 1.73-4.02 3.918Zm4.02-2.544c1.41 0 2.61 1.12 2.61 2.544 0 1.373-1.148 2.543-2.61 2.543-1.41 0-2.61-1.119-2.61-2.543 0-1.374 1.2-2.544 2.61-2.544ZM10.89 22.646H9.322v1.984h1.566v-1.984ZM13.97 22.646h-1.566v1.984h1.566v-1.984ZM10.89 25.698H9.322v1.983h1.566v-1.983ZM13.97 25.698h-1.566v1.983h1.566v-1.983ZM27.544 22.646h-1.566v1.984h1.566v-1.984ZM30.677 22.646H29.11v1.984h1.566v-1.984ZM27.544 25.698h-1.566v1.983h1.566v-1.983ZM30.677 25.698H29.11v1.983h1.566v-1.983Z"></path></svg><svg fill="currentColor" id="htmlacademy" viewBox="0 0 27 35"><path d="M13.65.45h-.1L.05 1.85v24.7l13.5 8 13.4-8V1.85L13.65.45Zm11.4 12.1-11.5-6.8v-.1h-.1l-.1-.1v.1l-11.4 6.9v-9l11.5-1.2 11.6 1.2v9Zm-11.6-5.3 11.5 6.7-4.5 2.6-7.1-4.2v1.4l5.9 3.5-.9.5-5-3v1.4l3.8 2.3-.8.5-3-1.8v1.4l1.9 1.1-1.8 1.1-11.4-6.7 11.4-6.8Zm-11.5 8.3 11.4 6.8v1l-7.9-4.7v1.4l8 4.8v1.1l-8-4.7v1.4l8 4.8 8.1-4.9v-5.2l3.4-2v10l-11.5 6.9-11.5-6.8v-9.9Z"></path></svg><svg fill="none" id="icon-burger-desk" viewBox="0 0 74 69"><path d="M69.054 46H4.262c-2.3 0-4.121 2-4.121 4.3v3.5c0 2.3 1.82 4.2 4.121 4.2h.959v1c0 5.5 4.313 9.9 9.488 9.9h43.898c5.272 0 9.489-4.5 9.489-9.9v-1h.958c2.205 0 4.122-1.9 4.122-4.3v-3.5c0-2.2-1.821-4.2-4.122-4.2Zm-3.738 13c0 3.8-2.97 6.9-6.613 6.9h-44.09C10.972 65.9 8 62.8 8 59v-1h57.316v1Zm4.984-5.3c0 .7-.575 1.3-1.246 1.3H4.262c-.67 0-1.246-.6-1.246-1.3v-3.5c0-.6.575-1.2 1.246-1.2H69.15c.671 0 1.246.6 1.246 1.3v3.4H70.3ZM15.668 37.9l5.176 4 5.271-4 5.272 4 5.271-4 5.176 4 5.271-4 5.272 4 5.272-4 5.271 4 6.039-4.7-1.63-2.4-4.409 3.3-5.271-4-5.272 4-5.272-4-5.271 4-5.176-4-5.271 4-5.272-4-5.271 4-5.176-4-5.272 4-4.409-3.3-1.725 2.4 6.134 4.7 5.272-4ZM68.096 31.1c0-.6.096-2.6 0-3C67.425 12.5 53.623 0 36.658 0 19.693 0 5.795 12.5 5.125 28.1v3h62.97ZM36.658 3C51.993 3 64.645 14.2 65.22 28.1H8C8.67 14.2 21.323 3 36.658 3Z" fill="#81B3D2"></path><path d="M36.658 17c1.059 0 1.917-.895 1.917-2s-.858-2-1.917-2c-1.059 0-1.917.895-1.917 2s.858 2 1.917 2ZM28.99 12.1c1.06 0 1.917-.896 1.917-2 0-1.105-.858-2-1.917-2-1.058 0-1.916.895-1.916 2 0 1.104.858 2 1.916 2ZM44.326 12.1c1.059 0 1.917-.896 1.917-2 0-1.105-.858-2-1.917-2-1.059 0-1.917.895-1.917 2 0 1.104.858 2 1.917 2Z" fill="#81B3D2"></path></svg><svg fill="none" id="icon-burger-tablet" viewBox="0 0 82 68"><path d="M76.529 45.332H5.36c-2.526 0-4.527 1.971-4.527 4.238v3.45c0 2.266 2 4.138 4.527 4.138h1.053v.986c0 5.42 4.738 9.756 10.423 9.756h48.217c5.79 0 10.423-4.435 10.423-9.756v-.986h1.053c2.421 0 4.526-1.872 4.526-4.237v-3.45c0-2.168-2-4.139-4.526-4.139Zm-4.106 12.812c0 3.745-3.264 6.8-7.264 6.8H16.73c-4 0-7.264-3.055-7.264-6.8v-.986h62.957v.986Zm5.474-5.223c0 .69-.632 1.28-1.368 1.28H5.36c-.737 0-1.368-.59-1.368-1.28v-3.45c0-.59.631-1.182 1.368-1.182h71.274c.737 0 1.368.591 1.368 1.281v3.35h-.105ZM17.889 37.35l5.684 3.941 5.79-3.941 5.791 3.941 5.79-3.941 5.685 3.941 5.79-3.941 5.791 3.941L64 37.35l5.79 3.941 6.633-4.631-1.79-2.365-4.842 3.252L64 33.605l-5.79 3.942-5.791-3.942-5.79 3.942-5.686-3.942-5.79 3.942-5.79-3.942-5.79 3.942-5.686-3.942-5.79 3.942-4.843-3.252L5.36 36.66l6.738 4.632 5.79-3.942ZM75.476 30.649c0-.592.105-2.563 0-2.957C74.739 12.32 59.579 0 40.944 0 22.31 0 7.044 12.319 6.308 27.692v2.957h69.168ZM40.944 2.956c16.845 0 30.742 11.038 31.373 24.736H9.467C10.202 13.994 24.1 2.956 40.943 2.956Z" fill="#81B3D2"></path><path d="M40.944 16.753c1.163 0 2.106-.882 2.106-1.97 0-1.09-.943-1.972-2.106-1.972-1.162 0-2.105.883-2.105 1.971 0 1.089.943 1.971 2.105 1.971ZM32.522 11.924c1.163 0 2.106-.882 2.106-1.971s-.943-1.97-2.106-1.97c-1.163 0-2.105.881-2.105 1.97s.942 1.971 2.105 1.971ZM49.367 11.924c1.163 0 2.105-.882 2.105-1.971s-.942-1.97-2.105-1.97-2.106.881-2.106 1.97.943 1.971 2.106 1.971Z" fill="#81B3D2"></path></svg><svg fill="none" id="icon-gift-desk" viewBox="0 0 78 76"><path d="M74.443 22.124h-30c16.721-6.8 18.073-11.1 17.459-13.5-1.353-3.9-6.886-6.9-12.05-5.3-6.762 2.1-8.606 10.3-10.45 16.2-2.336-6-4.55-13.6-9.836-17.5-1.476-1.1-3.689-2.2-7.009-2-4.918.4-11.926 5.3-8.975 10.8 2.705 5.3 11.68 8.7 17.705 11.4H3.869c-1.967 0-3.443 1.3-3.443 2.8v11.2c0 1.6 1.599 2.8 3.443 2.8h.369v36H74.32v-36h.123c1.967 0 3.442-1.3 3.442-2.8v-11.2c0-1.6-1.598-2.9-3.442-2.9ZM51.82 5.824c2.582-.3 6.024 1.3 6.393 3.2.492 2.7-4.057 5.2-6.147 6.3-3.074 1.7-6.025 2.6-8.853 4 .984-3.7 3.074-12.9 8.607-13.5Zm-27.787 9.8c-2.705-1.5-7.869-4.4-7.746-7.7.123-3.6 7.008-6.5 10.697-3.8 4.672 3.3 6.885 11 8.606 16.4-3.934-1.6-7.623-2.8-11.557-4.9Zm7.254 56.4H7.803v-33h23.484v33Zm0-36H4.115v-10.9h27.172v10.9Zm12.295 36h-8.73v-46.9h8.73v46.9Zm27.05 0H47.27v-33h23.484v33h-.123Zm3.565-36H47.27v-10.9h26.927v10.9Z" fill="#81B3D2"></path></svg><svg fill="none" id="icon-gift-tablet" viewBox="0 0 67 75"><path d="M64.016 22.117H38.258C52.615 15.319 53.776 11.02 53.248 8.62c-1.16-3.899-5.911-6.898-10.345-5.298-5.806 2.099-7.39 10.296-8.973 16.194-2.006-5.998-3.906-13.595-8.445-17.494-1.267-1.1-3.167-2.2-6.017-2-4.223.4-10.24 5.299-7.706 10.797 2.322 5.299 10.028 8.697 15.2 11.397H3.423c-1.689 0-2.956 1.3-2.956 2.799v11.196c0 1.6 1.373 2.8 2.956 2.8h.317V75H63.91V39.011h.106c1.689 0 2.956-1.3 2.956-2.799V25.016c0-1.6-1.373-2.9-2.956-2.9ZM44.592 5.822c2.217-.3 5.173 1.3 5.49 3.199.422 2.699-3.484 5.198-5.279 6.298-2.639 1.7-5.172 2.599-7.6 3.999.844-3.7 2.639-12.896 7.39-13.496Zm-23.857 9.797c-2.323-1.5-6.756-4.399-6.65-7.698.105-3.599 6.016-6.498 9.183-3.799 4.012 3.3 5.912 10.997 7.39 16.395-3.378-1.6-6.545-2.799-9.923-4.898ZM26.963 72H6.8V39.01h20.163v32.99Zm0-35.989H3.633V25.116h23.33v10.896Zm10.556 35.989h-7.495V25.116h7.495V72Zm23.224 0H40.686V39.01H60.85v32.99h-.105Zm3.062-35.989H40.686V25.116h23.119v10.896Z" fill="#81B3D2"></path></svg><svg fill="none" id="icon-house-desk" viewBox="0 0 81 73"><path d="M31.957 65.3H48.98V41.4H31.957v23.9Zm13.937-2.9H35.042V44.3h10.745v18.1h.107Z" fill="#81B3D2"></path><path d="m77.808 39.4 2.234-2.1-10.531-9.9V.4H54.83v13.2L40.255 0 .575 37.4l2.234 2.1 8.297-7.8v37.8H6.957v2.9h67.98v-2.9H69.51V31.6l8.297 7.8Zm-19.893-36h8.404v21.1l-8.404-7.9V3.4Zm8.51 66H14.298V28.7L40.255 4.2 66.32 28.7v40.7h.106Z" fill="#81B3D2"></path><path d="M32.277 27.2c0 4.3 3.723 7.8 8.191 7.8 4.575 0 8.298-3.5 8.298-7.8s-3.723-7.7-8.298-7.7c-4.574 0-8.191 3.4-8.191 7.7Zm8.191-5c2.872 0 5.32 2.2 5.32 5 0 2.7-2.341 5-5.32 5-2.872 0-5.319-2.2-5.319-5 0-2.7 2.447-5 5.32-5ZM21.745 41.4h-3.192v3.9h3.192v-3.9ZM28.021 41.4H24.83v3.9h3.191v-3.9ZM21.745 47.4h-3.192v3.9h3.192v-3.9ZM28.021 47.4H24.83v3.9h3.191v-3.9ZM55.68 41.4h-3.19v3.9h3.19v-3.9ZM62.064 41.4h-3.192v3.9h3.192v-3.9ZM55.68 47.4h-3.19v3.9h3.19v-3.9ZM62.064 47.4h-3.192v3.9h3.192v-3.9Z" fill="#81B3D2"></path></svg><svg fill="none" id="icon-house-tablet" viewBox="0 0 78 72"><path d="M30.878 64.939h16.499V41.17H30.878v23.768Zm13.508-2.884H33.87v-18h10.414v18h.103Z" fill="#81B3D2"></path><path d="m75.321 39.182 2.166-2.088-10.209-9.845V.398h-14.23v13.127L38.921 0 .46 37.193l2.166 2.089 8.043-7.757v37.591H6.646V72h65.891v-2.884h-5.259v-37.69l8.043 7.756ZM56.04 3.382h8.146v20.983l-8.147-7.857V3.381Zm8.249 65.635H13.76V28.54l25.16-24.364L64.185 28.54v40.476h.103Z" fill="#81B3D2"></path><path d="M31.188 27.05c0 4.275 3.609 7.756 7.94 7.756 4.434 0 8.043-3.48 8.043-7.757 0-4.276-3.61-7.657-8.043-7.657-4.434 0-7.94 3.38-7.94 7.657Zm7.94-4.973c2.784 0 5.155 2.188 5.155 4.972 0 2.685-2.268 4.972-5.155 4.972-2.784 0-5.156-2.187-5.156-4.972 0-2.685 2.372-4.972 5.156-4.972ZM20.98 41.17h-3.094v3.88h3.093v-3.88ZM27.063 41.17H23.97v3.88h3.093v-3.88ZM20.98 47.139h-3.094v3.878h3.093V47.14ZM27.063 47.139H23.97v3.878h3.093V47.14ZM53.873 41.17H50.78v3.88h3.093v-3.88ZM60.06 41.17h-3.093v3.88h3.093v-3.88ZM53.873 47.139H50.78v3.878h3.093V47.14ZM60.06 47.139h-3.093v3.878h3.093V47.14Z" fill="#81B3D2"></path></svg><svg fill="none" id="tg" viewBox="0 0 24 24"><path d="m22.44 4.622-3.17 14.944c-.239 1.055-.862 1.317-1.748.82l-4.828-3.558-2.33 2.242c-.258.258-.473.473-.97.473l.347-4.917 8.948-8.086c.39-.346-.084-.54-.604-.192L7.022 13.314 2.26 11.823c-1.036-.323-1.055-1.036.216-1.533l18.627-7.177c.863-.323 1.617.192 1.336 1.51Z" fill="#fff"></path></svg><svg fill="none" id="tick" viewBox="0 0 22 16"><path d="M21.805 1.307 20.76.222c-.285-.296-.856-.296-1.141 0L8.298 11.957 2.403 5.843c-.286-.296-.856-.296-1.142 0L.214 6.928c-.285.295-.285.887 0 1.183l7.419 7.692c.19.197.38.197.57.197.191 0 .381-.099.571-.197L21.615 2.49c.476-.296.476-.789.19-1.183Z" fill="#333"></path></svg><svg fill="currentColor" id="vk" viewBox="0 0 24 24"><g clip-path="url(#vk_0)"><path clip-rule="evenodd" d="M23.45 5.948c.166-.546 0-.948-.795-.948H20.03c-.668 0-.976.347-1.143.73 0 0-1.335 3.196-3.226 5.272-.612.602-.89.793-1.224.793-.167 0-.418-.191-.418-.738V5.948c0-.656-.184-.948-.74-.948H9.151c-.417 0-.668.304-.668.593 0 .621.946.765 1.043 2.513v3.798c0 .833-.153.984-.487.984-.89 0-3.055-3.211-4.34-6.885C4.45 5.288 4.198 5 3.527 5H.9c-.75 0-.9.347-.9.73 0 .682.89 4.07 4.145 8.551C6.315 17.341 9.37 19 12.153 19c1.669 0 1.875-.368 1.875-1.003v-2.313c0-.737.158-.884.687-.884.39 0 1.057.192 2.615 1.667C19.11 18.216 19.403 19 20.405 19h2.625c.75 0 1.126-.368.91-1.096-.238-.724-1.088-1.775-2.215-3.022-.612-.71-1.53-1.475-1.809-1.858-.389-.491-.278-.71 0-1.147 0 0 3.2-4.426 3.533-5.929h.001Z"></path></g><defs><clipPath id="vk_0"><path d="M0 0h24v24H0z"></path></clipPath></defs></svg><svg fill="none" id="youtube" viewBox="0 0 24 24"><path d="M19.181 5H4.813C3.306 5 2 6.3 2 7.8v8.3C2 17.7 3.306 19 4.813 19h14.368c1.608 0 2.814-1.3 2.814-2.8V7.8c.1-1.5-1.206-2.8-2.814-2.8ZM9.033 15.4V8.6l6.833 3.4-6.833 3.4Z" fill="#fff"></path></svg></svg>